<svg width="20" height="23" viewBox="0 0 20 23" fill="none" xmlns="http://www.w3.org/2000/svg">
<path d="M2.12512 5.44556C2.12512 5.77156 2.12512 6.09756 2.12512 8.14004C2.12512 10.1825 2.12512 13.9316 2.21794 16.3519C2.31075 18.7723 2.49638 19.7503 2.68763 20.758" stroke="#93C5DD" stroke-width="2" stroke-linecap="round"/>
<path d="M3.24999 1C3.62124 1 4.74062 1.326 5.68281 1.65694C5.69687 1.66188 4.76875 1.33588 3.82656 1.16794C2.88437 1 1.95625 1 1 1" stroke="#93C5DD" stroke-width="2" stroke-linecap="round"/>
<path d="M8.3125 20.264C9.24063 16.347 11.125 8.58212 11.125 7.91776C11.125 4.46861 13.915 17.2608 15.8078 21C17.6838 18.303 18.6231 14.1835 18.9044 11.2322C19 9.42183 19 6.97678 19 4.45764" stroke="#93C5DD" stroke-width="2" stroke-linecap="round"/>
</svg>
