<svg width="27" height="27" viewBox="0 0 27 27" fill="none" xmlns="http://www.w3.org/2000/svg">
<path d="M14.5315 16.5776C13.1056 16.1954 9.17301 14.4003 7.72328 12.6263C7.45053 12.2926 7.27031 12.0144 7.22944 11.6284C7.18857 11.2423 7.33843 10.7327 7.60294 10.311C9.4172 7.41816 15.7303 5.89932 18.3437 5.79991C20.633 5.71283 23.8906 8.77157 25.8058 11.0059C26.1103 11.3611 26.0339 11.8716 25.7354 12.4516C23.693 14.7091 22.1082 15.5449 20.4098 16.0275C19.5357 16.1915 18.6366 16.1915 17.7102 16.1915" stroke="#FFCCC9" stroke-width="2" stroke-linecap="round"/>
<path d="M8.8551 8.4705C8.8551 8.2157 8.8551 5.60018 9.04242 1.93169C9.10338 0.737933 9.60437 0.938565 9.8723 1.19626C10.6693 2.41909 11.2755 3.83012 11.5775 5.21123C11.7296 5.82796 11.8794 6.27385 12.4879 6.92628" stroke="#FFCCC9" stroke-width="2" stroke-linecap="round"/>
<path d="M21.5701 6.9263C21.645 5.84149 22.2467 3.1391 23.156 1.75123C23.3564 1.44536 23.609 1.20497 23.7248 2.0292C23.8406 4.76439 23.9155 7.11547 24.0665 7.8538C24.1426 8.20994 24.2175 8.52843 24.2947 8.85658" stroke="#FFCCC9" stroke-width="2" stroke-linecap="round"/>
<path d="M14.7584 16.1916C14.7584 16.2553 14.7584 16.319 14.7584 17.5621C14.7584 18.8052 14.7584 21.2257 14.3043 23.7197" stroke="#FFCCC9" stroke-width="2" stroke-linecap="round"/>
<path d="M18.6184 16.1916C18.6184 16.319 18.6184 17.2127 18.5809 18.6903C18.5435 19.3399 18.4686 19.7858 18.43 20.7162C18.3914 21.6465 18.3914 23.0479 18.3914 24.8778" stroke="#FFCCC9" stroke-width="2" stroke-linecap="round"/>
<path d="M14.5314 21.2103C13.705 21.0192 11.7387 19.7395 9.99718 18.1914C8.19623 16.5904 4.47754 16.8363 2.316 16.2264C1.81256 16.0843 1.37146 15.9368 1.17733 16.0304C0.743125 16.2398 1.21025 17.0892 1.47363 17.6992C2.02771 18.9824 4.9044 19.2762 7.33386 20.0493C8.85057 20.8224 10.6625 21.5925 13.1975 21.8531C13.7708 21.9168 14.1454 22.0442 14.9855 22.3685" stroke="#FFCCC9" stroke-width="2" stroke-linecap="round"/>
<path d="M14.9856 22.7545C14.9106 23.3298 14.6087 24.4242 14.494 25.066C14.4366 25.3871 14.754 25.7079 15.4692 25.8719C16.1844 26.036 17.3832 26.036 18.1132 25.9086C18.8432 25.7812 19.068 25.5264 19.2212 25.2041C19.9669 23.6357 19.3768 21.6041 18.7342 19.834C18.6184 19.3495 18.6184 18.8399 18.6933 18.4182C18.7683 17.9964 18.9181 17.6779 19.0725 17.1567" stroke="#FFCCC9" stroke-width="2" stroke-linecap="round"/>
</svg>
