<svg width="22" height="18" viewBox="0 0 22 18" fill="none" xmlns="http://www.w3.org/2000/svg">
<path d="M1.97182 2.99858C1.82705 4.34695 1.53313 8.12012 1.35107 10.5064C1.17503 12.8138 0.875092 14.4744 1.05605 15.5679C1.14239 16.0896 1.59893 16.437 2.47302 16.6296C6.48502 17.5137 14.1148 16.5956 18.8548 16.1446C22.6304 15.7854 20.2499 5.34633 20.3595 3.95376C20.422 3.16116 20.3968 2.18729 17.972 1.68646C10.8227 0.20988 5.26639 1.48477 4.46358 2.08757C3.75217 2.62175 3.36247 3.44728 3.28789 4.2767C3.10551 6.30512 6.85884 7.97508 8.43703 9.45149C8.85897 9.84623 9.34621 10.3908 9.82438 10.6605C10.3026 10.9302 10.7369 10.9302 11.1777 10.7806C13.0291 10.1525 13.9569 8.14278 15.1643 6.93038C15.8564 6.55193 16.736 6.24827 17.6484 5.90948C18.0542 5.72025 18.3438 5.4959 18.6421 5.26475" stroke="#E6D480" stroke-width="2" stroke-linecap="round"/>
</svg>
